<svg width="32" height="32" viewBox="0 0 32 32" fill="none" xmlns="http://www.w3.org/2000/svg">
<path d="M15.5698 28C10.7657 28 6.79847 25.505 5.50123 20.4598C4.77053 17.6113 4.94485 14.3976 5.35306 12.3401C5.81065 10.0306 7.29965 6.81686 9.98711 5.3636C12.814 3.83644 16.1944 3.80602 18.2296 4.24359C20.8009 4.79707 22.6617 5.9026 24.0854 7.72388C25.5903 9.64949 25.984 11.5939 26 11.6751L23.9851 12.0677L24.9918 11.8721L23.9851 12.0721C23.9822 12.0561 23.6554 10.5058 22.4656 8.98299C21.3398 7.54277 19.9002 6.69805 17.7953 6.24599C15.9678 5.85333 13.1481 5.98374 10.9633 7.1646C8.75814 8.35706 7.66427 11.2288 7.36502 12.7371C7.01783 14.4903 6.84205 17.4316 7.4885 19.9498C8.13785 22.4753 9.57019 24.243 11.7449 25.205C14.21 26.2961 17.1808 26.015 18.9763 25.4441C20.7616 24.8761 22.3886 23.2707 22.7605 21.7103C23.2399 19.7006 22.4903 18.1532 20.9084 17.2433C20.583 19.4557 19.537 21.1104 17.9362 21.8392C15.548 22.9273 12.4233 22.0479 11.3788 19.9947C10.8035 18.8617 10.8311 17.4925 11.4543 16.4188C11.8799 15.6857 12.9767 14.4338 15.548 14.2976C16.7639 14.2339 17.8737 14.2817 18.8732 14.4425C18.6698 13.2138 18.0219 11.7229 16.0796 11.649C14.3103 11.5823 13.4677 12.3358 13.0711 12.9805L11.3207 11.9112C11.771 11.1795 13.1423 9.48721 16.1581 9.60313C18.9632 9.7089 20.8168 11.7837 20.997 15.0163C24.0708 16.2565 25.5061 19.0385 24.7565 22.1812C24.2147 24.456 22.0937 26.5989 19.5995 27.3929C18.4867 27.7464 17.0733 27.9971 15.5669 27.9971L15.5698 28ZM16.5779 16.3188C15.3736 16.3188 13.8382 16.4 13.2324 17.4447C12.9535 17.9257 12.9462 18.5473 13.2106 19.0689C13.7466 20.1237 15.7383 20.5917 17.0849 19.9774C18.1236 19.5036 18.7773 18.2546 18.9313 16.5304C18.2311 16.3884 17.4452 16.3174 16.5779 16.3174V16.3188Z" fill="black"/>
</svg>
